TITLE ""
FILE "P1Q_t_1188-1196.mp3" MP3
  TRACK 01 AUDIO
    TITLE "P1Q_t_1188-1196_01"
    INDEX 01 00:00:00
  TRACK 02 AUDIO
    TITLE "P1Q_t_1188-1196_02"
    INDEX 01 00:01:22
  TRACK 03 AUDIO
    TITLE "P1Q_t_1188-1196_03"
    INDEX 01 00:01:43
  TRACK 04 AUDIO
    TITLE "P1Q_t_1188-1196_04"
    INDEX 01 00:05:58
  TRACK 05 AUDIO
    TITLE "P1Q_t_1188-1196_05"
    INDEX 01 00:06:03
  TRACK 06 AUDIO
    TITLE "P1Q_t_1188-1196_06"
    INDEX 01 00:10:15
  TRACK 07 AUDIO
    TITLE "P1Q_t_1188-1196_07"
    INDEX 01 00:10:60
  TRACK 08 AUDIO
    TITLE "P1Q_t_1188-1196_08"
    INDEX 01 00:12:13
  TRACK 09 AUDIO
    TITLE "P1Q_t_1188-1196_09"
    INDEX 01 00:12:33
  TRACK 10 AUDIO
    TITLE "P1Q_t_1188-1196_10"
    INDEX 01 00:15:53
  TRACK 11 AUDIO
    TITLE "P1Q_t_1188-1196_11"
    INDEX 01 00:15:71
  TRACK 12 AUDIO
    TITLE "P1Q_t_1188-1196_12"
    INDEX 01 00:21:03
  TRACK 13 AUDIO
    TITLE "P1Q_t_1188-1196_13"
    INDEX 01 00:21:50
  TRACK 14 AUDIO
    TITLE "P1Q_t_1188-1196_14"
    INDEX 01 00:22:63
  TRACK 15 AUDIO
    TITLE "P1Q_t_1188-1196_15"
    INDEX 01 00:23:07
  TRACK 16 AUDIO
    TITLE "P1Q_t_1188-1196_16"
    INDEX 01 00:25:24
  TRACK 17 AUDIO
    TITLE "P1Q_t_1188-1196_17"
    INDEX 01 00:25:42
  TRACK 18 AUDIO
    TITLE "P1Q_t_1188-1196_18"
    INDEX 01 00:29:00
  TRACK 19 AUDIO
    TITLE "P1Q_t_1188-1196_19"
    INDEX 01 00:29:43
  TRACK 20 AUDIO
    TITLE "P1Q_t_1188-1196_20"
    INDEX 01 00:30:62
  TRACK 21 AUDIO
    TITLE "P1Q_t_1188-1196_21"
    INDEX 01 00:31:11
  TRACK 22 AUDIO
    TITLE "P1Q_t_1188-1196_22"
    INDEX 01 00:33:51
  TRACK 23 AUDIO
    TITLE "P1Q_t_1188-1196_23"
    INDEX 01 00:33:70
  TRACK 24 AUDIO
    TITLE "P1Q_t_1188-1196_24"
    INDEX 01 00:38:17
  TRACK 25 AUDIO
    TITLE "P1Q_t_1188-1196_25"
    INDEX 01 00:38:64
  TRACK 26 AUDIO
    TITLE "P1Q_t_1188-1196_26"
    INDEX 01 00:40:02
  TRACK 27 AUDIO
    TITLE "P1Q_t_1188-1196_27"
    INDEX 01 00:40:24
  TRACK 28 AUDIO
    TITLE "P1Q_t_1188-1196_28"
    INDEX 01 00:43:55
  TRACK 29 AUDIO
    TITLE "P1Q_t_1188-1196_29"
    INDEX 01 00:43:73
  TRACK 30 AUDIO
    TITLE "P1Q_t_1188-1196_30"
    INDEX 01 00:48:31
  TRACK 31 AUDIO
    TITLE "P1Q_t_1188-1196_31"
    INDEX 01 00:49:01
  TRACK 32 AUDIO
    TITLE "P1Q_t_1188-1196_32"
    INDEX 01 00:50:18
  TRACK 33 AUDIO
    TITLE "P1Q_t_1188-1196_33"
    INDEX 01 00:50:38
  TRACK 34 AUDIO
    TITLE "P1Q_t_1188-1196_34"
    INDEX 01 00:52:66
  TRACK 35 AUDIO
    TITLE "P1Q_t_1188-1196_35"
    INDEX 01 00:53:10
  TRACK 36 AUDIO
    TITLE "P1Q_t_1188-1196_36"
    INDEX 01 00:58:25
  TRACK 37 AUDIO
    TITLE "P1Q_t_1188-1196_37"
    INDEX 01 00:58:70
  TRACK 38 AUDIO
    TITLE "P1Q_t_1188-1196_38"
    INDEX 01 01:00:03
  TRACK 39 AUDIO
    TITLE "P1Q_t_1188-1196_39"
    INDEX 01 01:00:46
  TRACK 40 AUDIO
    TITLE "P1Q_t_1188-1196_40"
    INDEX 01 01:01:57
  TRACK 41 AUDIO
    TITLE "P1Q_t_1188-1196_41"
    INDEX 01 01:02:04
  TRACK 42 AUDIO
    TITLE "P1Q_t_1188-1196_42"
    INDEX 01 01:05:22
  TRACK 43 AUDIO
    TITLE "P1Q_t_1188-1196_43"
    INDEX 01 01:05:39
  TRACK 44 AUDIO
    TITLE "P1Q_t_1188-1196_44"
    INDEX 01 01:11:28
  TRACK 45 AUDIO
    TITLE "P1Q_t_1188-1196_45"
    INDEX 01 01:11:73
  TRACK 46 AUDIO
    TITLE "P1Q_t_1188-1196_46"
    INDEX 01 01:13:17
  TRACK 47 AUDIO
    TITLE "P1Q_t_1188-1196_47"
    INDEX 01 01:13:39
  TRACK 48 AUDIO
    TITLE "P1Q_t_1188-1196_48"
    INDEX 01 01:16:08
  TRACK 49 AUDIO
    TITLE "P1Q_t_1188-1196_49"
    INDEX 01 01:16:29
  TRACK 50 AUDIO
    TITLE "P1Q_t_1188-1196_50"
    INDEX 01 01:21:62
  TRACK 51 AUDIO
    TITLE "P1Q_t_1188-1196_51"
    INDEX 01 01:22:32
  TRACK 52 AUDIO
    TITLE "P1Q_t_1188-1196_52"
    INDEX 01 01:23:72
  TRACK 53 AUDIO
    TITLE "P1Q_t_1188-1196_53"
    INDEX 01 01:24:19
  TRACK 54 AUDIO
    TITLE "P1Q_t_1188-1196_54"
    INDEX 01 01:26:35
  TRACK 55 AUDIO
    TITLE "P1Q_t_1188-1196_55"
    INDEX 01 01:26:55
  TRACK 56 AUDIO
    TITLE "P1Q_t_1188-1196_56"
    INDEX 01 01:32:69
